<svg  xmlns="http://www.w3.org/2000/svg" viewBox="0 0 64 64" ><title>Artboard-32</title><g id="Download_File" data-name="Download File"><path d="M51,14H47V9a1.127,1.127,0,0,0-.293-.707l-8-8A1.111,1.111,0,0,0,38,0H18a1,1,0,0,0-1,1V12H12a3,3,0,0,0-3,3V41a5.006,5.006,0,0,0,5,5H24a1,1,0,0,0,0-2H14a3,3,0,0,1-3-3V15a1,1,0,0,1,1-1H22.89a1.027,1.027,0,0,1,.852.471l4.41,7.059A1,1,0,0,0,29,22H50a1,1,0,0,0,0-2H47V16h4a2,2,0,0,1,2,2V41a3,3,0,0,1-3,3H40a1,1,0,0,0,0,2H50a5.006,5.006,0,0,0,5-5V18A4,4,0,0,0,51,14ZM43.586,8H39V3.414ZM29.554,20l-4.121-6.6c-.056-.086-.131-.153-.193-.232A2.984,2.984,0,0,0,22.89,12H19V2H37V9a1,1,0,0,0,1,1h7V20Z" style="fill:#28282b"/><path d="M22,6H33a1,1,0,0,0,0-2H22a1,1,0,0,0,0,2Z" style="fill:#28282b"/><path d="M34,9a1,1,0,0,0-1-1H22a1,1,0,0,0,0,2H33A1,1,0,0,0,34,9Z" style="fill:#28282b"/><path d="M41,12H29a1,1,0,0,0,0,2H41a1,1,0,0,0,0-2Z" style="fill:#28282b"/><path d="M41,16H31a1,1,0,0,0,0,2H41a1,1,0,0,0,0-2Z" style="fill:#ffffff"/><path d="M42,52H37V41a1,1,0,0,0-2,0V53a1,1,0,0,0,1,1h3.586L32,61.586,24.414,54H28a1,1,0,0,0,1-1V41a1,1,0,0,0-2,0V52H22a1,1,0,0,0-.707,1.707l10,10a1,1,0,0,0,1.414,0l10-10A1,1,0,0,0,42,52Z" style="fill:#28282b"/><path d="M36,38a1,1,0,0,0,1-1V32a1,1,0,0,0-2,0v5A1,1,0,0,0,36,38Z" style="fill:#ffffff"/><path d="M33,37V28a1,1,0,0,0-2,0v9a1,1,0,0,0,2,0Z" style="fill:#ffffff"/><path d="M28,38a1,1,0,0,0,1-1V32a1,1,0,0,0-2,0v5A1,1,0,0,0,28,38Z" style="fill:#2ffffff"/></g></svg>